<svg version="1.1" id="Layer_1" xmlns="http://www.w3.org/2000/svg" xmlns:xlink="http://www.w3.org/1999/xlink" x="0px" y="0px"
	 width="100%" viewBox="0 0 512 512" enable-background="new 0 0 512 512" xml:space="preserve">
<path fill="#45C1EF" opacity="1.000000" stroke="none" 
	d="
M1.221738,236.355804 
	C1.000000,235.555557 1.000000,235.111099 1.000000,234.333328 
	C2.096553,229.974167 2.004712,225.815826 2.194733,221.714096 
	C3.233930,199.282410 10.197120,178.386169 18.536304,157.837662 
	C26.065628,139.284744 35.932476,122.052345 47.501293,105.714310 
	C55.984825,93.733452 65.733131,82.823853 76.069794,72.557892 
	C87.005096,61.697376 99.007423,51.993500 111.790016,43.174942 
	C131.403824,29.643608 152.631027,19.490391 174.966797,11.744669 
	C191.120712,6.142726 207.755615,1.885331 225.127151,1.993719 
	C228.450089,2.014452 231.734924,1.198038 235.484314,1.500172 
	C241.347656,1.462160 246.801315,1.578051 252.627014,1.219392 
	C256.361298,1.000000 259.722565,1.000000 263.541931,1.000000 
	C268.520172,2.093998 273.112427,1.219177 278.084045,1.500163 
	C279.882294,1.537705 281.264282,1.403217 283.004395,1.784023 
	C300.674591,11.854435 311.564148,27.528263 320.700867,44.485813 
	C334.726013,70.516098 342.539276,98.739014 348.676331,127.480309 
	C349.073181,129.338882 349.000519,131.123245 347.606384,133.035553 
	C344.357147,134.751755 342.168091,132.849686 340.010376,131.418396 
	C322.698975,119.935104 303.812134,112.436836 283.379669,108.773643 
	C254.245804,103.550446 226.113007,107.117867 198.778976,118.196190 
	C180.449127,125.625168 164.393021,136.616791 150.535843,150.468246 
	C136.432510,164.565720 125.378571,180.959366 117.815010,199.606689 
	C110.077171,218.683670 105.888451,238.533188 106.368073,259.001953 
	C107.197845,294.414154 118.605171,326.335358 141.499283,353.567169 
	C165.074112,381.608704 195.203049,399.007751 231.310150,405.320862 
	C266.318237,411.441803 299.501099,405.648285 330.583496,388.223907 
	C333.929321,386.348267 337.210327,384.396515 340.422333,382.303802 
	C342.206238,381.141510 344.019318,379.782776 346.777985,380.413208 
	C349.072754,382.164185 349.152771,384.286102 348.678192,386.481598 
	C341.561859,419.401093 332.422485,451.578522 314.282776,480.470154 
	C307.777252,490.831726 299.524109,499.669342 290.596069,507.924561 
	C288.754547,509.627319 286.065887,509.975739 283.803375,511.820251 
	C282.183411,512.711243 280.795074,512.440674 279.025360,512.499878 
	C274.316010,512.535217 270.026733,512.426392 265.369263,512.779663 
	C261.307098,513.000000 257.614197,513.000000 253.460632,513.000000 
	C247.272964,511.934082 241.498718,512.714783 235.374207,512.779480 
	C235.000000,513.000000 234.500000,513.000000 234.250000,513.000000 
	C224.539169,511.217163 214.846115,512.043152 205.354019,510.201569 
	C192.418655,507.691864 179.976242,503.710815 167.556259,499.403503 
	C145.503571,491.755585 125.587967,480.081024 106.351517,467.243683 
	C100.341423,463.232910 94.637650,458.480652 89.150139,453.669922 
	C80.026604,445.671600 71.395409,437.063232 63.316078,428.063965 
	C56.243492,420.186005 49.806030,411.639679 43.786961,402.837585 
	C23.214527,372.753174 9.597600,339.798248 3.088752,303.971954 
	C1.698075,296.317322 2.143470,288.404663 1.222531,280.315308 
	C1.000000,279.555542 1.000000,279.111115 1.000000,278.333313 
	C2.094392,274.751495 1.219188,271.403351 1.500163,267.699158 
	C1.475710,265.086517 1.554767,262.887604 1.224091,260.345093 
	C1.000000,258.285645 1.000000,256.571289 1.000000,254.428467 
	C2.026234,252.215973 1.263407,250.271683 1.500168,248.003311 
	C1.467558,243.963730 1.568560,240.337067 1.221738,236.355804 
z"/>
<path fill="#3EAAE0" opacity="1.000000" stroke="none" 
	d="
M283.388306,511.646484 
	C286.429169,507.418976 290.975769,504.634338 294.751831,500.930450 
	C310.524170,485.459747 320.675110,466.605560 328.840759,446.419739 
	C336.975128,426.311249 342.244537,405.390106 346.861145,384.272186 
	C347.036011,383.472382 346.951141,382.615784 346.985779,381.362244 
	C346.372437,380.258209 346.395508,379.506561 346.969727,378.402863 
	C377.920715,353.446655 398.536011,322.431000 405.406006,283.320892 
	C412.099915,245.212921 404.842438,209.563660 384.335541,176.670929 
	C375.538818,162.561127 364.377899,150.558121 351.695374,139.915802 
	C350.408722,138.836121 349.724060,137.202225 347.860291,136.194641 
	C346.987793,135.352707 346.709045,134.635178 346.846558,133.436493 
	C345.720062,120.932610 342.159760,109.319359 338.909180,97.645477 
	C332.907410,76.091042 325.061829,55.317108 313.201416,36.179260 
	C305.667236,24.022198 296.527649,13.427313 285.001495,4.922244 
	C284.352875,4.443630 283.872192,3.737442 283.174072,2.807542 
	C292.036682,1.380105 300.957672,2.316845 309.748383,4.082218 
	C333.845337,8.921418 356.596283,17.433901 378.359985,28.914038 
	C391.945007,36.079994 404.631531,44.540432 416.823853,53.718529 
	C423.023071,58.385159 428.399628,64.209496 434.242035,69.377167 
	C450.719452,83.951584 463.847107,101.265404 475.807129,119.485275 
	C480.797577,127.087746 484.935455,135.284821 489.029449,143.482849 
	C495.902466,157.245560 501.043060,171.567368 505.366577,186.269211 
	C509.132721,199.075790 511.930389,212.015762 511.961914,225.423096 
	C511.968201,228.101456 512.618591,230.702194 512.777344,233.683960 
	C513.000000,234.000000 513.000000,234.500000 513.000000,234.750000 
	C511.934082,240.727036 512.714783,246.501282 512.779480,252.625793 
	C513.000000,255.041672 513.000000,257.083344 513.000000,259.562500 
	C511.975067,261.797089 512.735718,263.753052 512.499878,266.037201 
	C512.533630,270.395416 512.429260,274.337463 512.778809,278.639191 
	C513.000000,279.000000 513.000000,279.500000 513.000000,279.750000 
	C511.506836,284.314301 511.942902,288.859772 511.658081,293.277252 
	C509.969452,319.465698 501.301270,343.578491 490.553802,367.179535 
	C481.866699,386.255951 470.663788,403.733704 457.421387,419.855255 
	C439.135864,442.116394 417.763977,460.968048 393.378479,476.434509 
	C380.965759,484.307251 367.991089,491.242828 354.401428,496.462494 
	C331.745361,505.164368 308.673004,513.071228 283.388306,511.646484 
z"/>
<path fill="#FEFFFF" opacity="1.000000" stroke="none" 
	d="
M282.726868,511.620483 
	C303.375519,509.764038 323.032562,505.041138 342.316467,498.403992 
	C368.859924,489.268219 392.979004,475.677795 415.037537,458.551941 
	C430.840576,446.282715 444.845886,432.038208 457.368896,416.348450 
	C475.188843,394.022430 488.888428,369.384216 498.390259,342.533630 
	C504.440765,325.435944 508.894897,307.834900 510.822021,289.697968 
	C511.154846,286.565674 511.791290,283.465637 512.643738,280.175354 
	C513.000000,356.261780 512.965515,432.523590 513.105042,508.785126 
	C513.111816,512.475098 512.240845,513.096802 508.722504,513.091248 
	C432.460907,512.971313 356.199097,513.000000 279.468658,513.000000 
	C278.788361,512.823303 278.576752,512.646667 278.730652,512.276611 
	C280.204468,511.970734 281.312805,511.858185 282.726868,511.620483 
z"/>
<path fill="#FEFFFF" opacity="1.000000" stroke="none" 
	d="
M513.000000,233.531342 
	C510.393860,229.026428 510.782471,223.454987 510.016968,218.149414 
	C507.630859,201.611801 503.322205,185.560135 497.784821,169.870148 
	C490.045441,147.940994 479.274963,127.481728 465.712219,108.596794 
	C452.950104,90.826637 438.155945,74.907059 421.411957,60.727066 
	C400.516510,43.031357 377.282623,29.229469 352.021088,19.048615 
	C330.215698,10.260655 307.461273,4.625190 283.493469,2.467423 
	C281.950348,2.326005 280.865875,2.174101 279.452393,1.961469 
	C278.869934,1.782529 278.616455,1.664317 278.681488,1.273052 
	C355.594788,1.000000 432.189667,1.034246 508.784210,0.895152 
	C512.471680,0.888456 513.097107,1.755743 513.091553,5.276560 
	C512.971130,81.205124 513.000000,157.133926 513.000000,233.531342 
z"/>
<path fill="#FEFFFF" opacity="1.000000" stroke="none" 
	d="
M1.000000,280.468658 
	C3.584117,285.154541 3.163318,290.886017 4.026148,296.353882 
	C6.701979,313.310822 11.065854,329.795227 16.900837,345.929016 
	C23.037663,362.897430 31.012510,379.037598 40.639805,394.178314 
	C51.978363,412.010284 65.466919,428.266327 80.869843,442.875610 
	C98.591057,459.683746 118.275017,473.815857 139.922821,484.936615 
	C159.458801,494.972473 180.085922,502.376251 201.663254,507.033997 
	C212.246124,509.318420 222.966614,510.545471 233.809113,512.645325 
	C157.738373,513.000000 81.476692,512.965576 5.215321,513.104980 
	C1.526549,513.111694 0.902994,512.242493 0.908567,508.722961 
	C1.028802,432.794556 1.000000,356.865906 1.000000,280.468658 
z"/>
<path fill="#FEFFFF" opacity="1.000000" stroke="none" 
	d="
M235.241653,1.721458 
	C201.797302,4.532546 170.451965,13.593766 140.977570,28.454325 
	C116.695999,40.696739 94.998672,56.814842 75.728165,76.150208 
	C62.882141,89.039474 51.514599,103.116257 41.639675,118.319046 
	C33.768341,130.437225 27.174904,143.321945 21.427139,156.628601 
	C13.670907,174.585052 8.571322,193.329147 4.650971,212.407867 
	C3.217161,219.385635 2.661700,226.543900 1.352773,233.809906 
	C1.000000,157.738220 1.034486,81.476364 0.894932,5.214830 
	C0.888180,1.524666 1.759377,0.903159 5.277539,0.908693 
	C81.539108,1.028633 157.800919,1.000000 234.531342,1.000000 
	C235.214005,1.189419 235.428024,1.378837 235.241653,1.721458 
z"/>
<path fill="#82D6F4" opacity="1.000000" stroke="none" 
	d="
M235.319580,1.889474 
	C234.841263,1.874661 234.910019,1.435407 234.955017,1.217703 
	C240.688034,1.000000 246.376083,1.000000 252.532059,1.000000 
	C247.354462,2.984836 241.538422,1.726057 235.319580,1.889474 
z"/>
<path fill="#84D6F4" opacity="1.000000" stroke="none" 
	d="
M235.467941,513.000000 
	C240.720413,511.013794 246.514145,511.969635 252.649506,512.784424 
	C247.311966,513.000000 241.623917,513.000000 235.467941,513.000000 
z"/>
<path fill="#8DCDED" opacity="1.000000" stroke="none" 
	d="
M513.000000,252.532059 
	C511.374359,247.259827 511.718964,241.459610 512.735535,235.323486 
	C513.000000,240.688034 513.000000,246.376083 513.000000,252.532059 
z"/>
<path fill="#84D6F4" opacity="1.000000" stroke="none" 
	d="
M278.533875,1.000000 
	C279.000000,1.000000 279.043579,1.452859 279.083496,1.676800 
	C274.309052,1.981601 269.483521,2.395839 264.352295,1.209036 
	C268.689240,1.000000 273.378510,1.000000 278.533875,1.000000 
z"/>
<path fill="#8BD9F5" opacity="1.000000" stroke="none" 
	d="
M278.628113,512.045715 
	C279.096161,512.083313 279.008820,512.537537 279.004395,512.768799 
	C274.643097,513.000000 270.286194,513.000000 265.464661,513.000000 
	C269.280548,511.260986 273.767334,512.258362 278.628113,512.045715 
z"/>
<path fill="#92CFED" opacity="1.000000" stroke="none" 
	d="
M513.000000,278.536804 
	C510.913483,275.137634 512.393982,271.004059 512.106750,266.552612 
	C512.245544,265.855011 512.365540,265.611115 512.742798,265.683624 
	C513.000000,270.024536 513.000000,274.049103 513.000000,278.536804 
z"/>
<path fill="#9ADDF6" opacity="1.000000" stroke="none" 
	d="
M1.000000,236.460632 
	C3.059218,239.520233 1.596467,243.331863 1.893138,247.446381 
	C1.757395,248.141678 1.638350,248.387177 1.259652,248.316345 
	C1.000000,244.307098 1.000000,240.614182 1.000000,236.460632 
z"/>
<path fill="#98DDF6" opacity="1.000000" stroke="none" 
	d="
M1.704303,266.722229 
	C1.832593,270.515717 2.507097,273.979248 1.268952,277.692505 
	C1.000000,274.638702 1.000000,271.277435 1.000000,267.458069 
	C1.169513,266.788757 1.339025,266.577484 1.704303,266.722229 
z"/>
<path fill="#71D0F3" opacity="1.000000" stroke="none" 
	d="
M1.937205,266.659332 
	C1.900069,267.078247 1.450022,267.039276 1.225011,267.019653 
	C1.000000,264.958344 1.000000,262.916656 1.000000,260.437500 
	C2.439730,261.906067 1.899432,264.121277 1.937205,266.659332 
z"/>
<path fill="#6ECFF3" opacity="1.000000" stroke="none" 
	d="
M1.000000,248.428467 
	C1.000000,248.000000 1.438397,247.942947 1.657419,247.919571 
	C1.983485,249.741043 2.268162,251.599991 1.220908,253.685364 
	C1.000000,252.285645 1.000000,250.571289 1.000000,248.428467 
z"/>
<path fill="#69BDE7" opacity="1.000000" stroke="none" 
	d="
M513.000000,265.571533 
	C513.000000,266.000000 512.562622,266.055511 512.344055,266.077209 
	C512.008789,264.254974 511.735229,262.398651 512.779297,260.314606 
	C513.000000,261.714355 513.000000,263.428711 513.000000,265.571533 
z"/>
<path fill="#FDCE0C" opacity="1.000000" stroke="none" 
	d="
M348.290070,378.670410 
	C347.707336,379.454224 347.404907,379.908203 347.043396,380.650513 
	C335.126648,388.652527 323.033051,395.932526 309.557648,400.538818 
	C258.760529,417.902740 211.072952,411.558807 167.298065,380.511383 
	C135.420425,357.902130 115.217865,326.773010 107.552032,288.557159 
	C97.576546,238.827103 109.241501,194.052689 142.805054,155.696442 
	C168.426865,126.415985 201.082382,109.668045 239.636230,105.202087 
	C276.718811,100.906548 311.012177,109.395691 342.179901,130.104813 
	C343.565704,131.025604 344.936218,131.969391 346.650665,132.982773 
	C347.298218,133.438782 347.608978,133.814468 348.045715,134.405807 
	C352.963654,144.473022 353.680603,155.251709 355.337158,166.215057 
	C355.470825,168.105255 355.513641,169.614700 355.968750,171.466766 
	C356.105164,172.361526 356.172546,172.875015 356.251678,173.779282 
	C356.126923,175.926697 356.043335,177.680649 356.705231,179.770248 
	C357.006104,181.173416 356.951355,182.229324 357.197235,183.645172 
	C357.196716,185.561630 357.194855,187.084549 357.755310,188.949783 
	C357.977905,190.406189 358.049438,191.482208 358.203613,192.963745 
	C357.804291,195.792572 357.862030,198.182724 358.710266,200.943298 
	C358.897766,202.756226 358.973358,204.161850 359.240173,205.981567 
	C358.706635,209.231094 358.867279,212.016937 359.713898,215.210083 
	C359.703979,218.035553 360.157990,220.371368 360.529358,223.178391 
	C359.268982,230.332489 358.971008,237.023132 360.671631,244.170807 
	C360.646149,252.220932 361.623810,259.810455 360.694336,267.856506 
	C359.492889,275.627106 358.740509,282.944275 360.399078,290.763062 
	C360.542511,293.335052 359.647339,295.341187 359.782562,297.900513 
	C359.523254,301.124908 358.322754,303.833191 359.172668,307.130157 
	C359.329071,308.984589 358.805908,310.359802 358.854675,312.204407 
	C358.462036,314.997314 357.495300,317.306885 358.118683,320.190552 
	C358.271881,321.699036 357.972260,322.769867 357.903717,324.261017 
	C357.587463,326.180237 357.088501,327.667145 357.222717,329.642181 
	C357.234985,331.118256 356.899933,332.164734 356.901184,333.654755 
	C356.458221,335.901611 356.098816,337.745087 356.297180,340.069397 
	C354.377106,350.441345 353.327332,360.529053 351.464996,370.490448 
	C350.933563,373.333130 350.177307,375.958649 348.290070,378.670410 
z"/>
<path fill="#E7BD20" opacity="1.000000" stroke="none" 
	d="
M355.236267,184.333954 
	C354.794464,183.206375 354.554382,182.346619 354.208252,181.168335 
	C354.917114,178.857361 354.355377,176.787491 354.267517,174.459518 
	C354.063721,173.683929 354.037201,173.203049 354.004517,172.361023 
	C353.020416,170.655533 353.739288,169.097015 353.239471,167.358307 
	C352.613403,156.346481 348.599915,146.207138 348.123840,135.070618 
	C370.381592,150.763138 387.264221,171.427155 397.437225,196.800598 
	C420.091309,253.304413 412.486237,305.992798 375.002106,354.021881 
	C367.544800,363.577057 358.859619,372.189789 348.359741,379.046326 
	C349.972107,366.224030 351.934479,353.447754 353.986694,340.265503 
	C354.951202,337.875214 354.336517,335.800293 354.281860,333.467438 
	C354.384033,332.305573 354.651703,331.445831 354.979858,330.253540 
	C355.977875,328.236694 355.322845,326.427795 355.266907,324.398438 
	C355.367676,323.257660 355.651764,322.398590 356.000305,321.206116 
	C356.950256,318.210449 356.332245,315.477509 356.265686,312.452118 
	C356.364166,310.950134 356.641846,309.774963 356.988770,308.242737 
	C357.986237,304.893677 357.321259,301.833801 357.266998,298.468628 
	C357.390594,296.307495 357.691925,294.485229 358.029938,292.266357 
	C358.995300,284.244873 358.312408,276.593170 358.273987,268.548950 
	C358.979401,260.683655 358.980804,253.226578 358.066925,245.320831 
	C358.960022,237.880142 358.330200,230.865082 358.240173,223.471161 
	C357.722260,220.952164 357.404114,218.824417 357.080383,216.294098 
	C357.964783,212.883392 357.334625,209.813995 357.249603,206.442261 
	C356.759644,204.938110 356.462372,203.766037 356.125092,202.233459 
	C356.925079,199.200165 356.346161,196.464767 356.252136,193.438614 
	C355.810608,192.247864 355.560028,191.377670 355.201447,190.184570 
	C355.908569,188.154221 355.365967,186.357864 355.236267,184.333954 
z"/>
<path fill="#D2C53D" opacity="1.000000" stroke="none" 
	d="
M358.087097,268.596558 
	C359.732117,275.804504 359.160858,283.505096 358.286102,291.538452 
	C358.069489,284.263245 358.072388,276.656799 358.087097,268.596558 
z"/>
<path fill="#D2C53E" opacity="1.000000" stroke="none" 
	d="
M358.030945,223.540283 
	C359.890564,230.082550 359.032745,237.145615 358.299408,244.535568 
	C358.065399,237.913544 358.043427,230.957108 358.030945,223.540283 
z"/>
<path fill="#CFC43F" opacity="1.000000" stroke="none" 
	d="
M357.040863,206.551727 
	C358.648315,209.089081 358.129822,212.170746 357.288696,215.574615 
	C357.058167,212.925446 357.041504,209.959366 357.040863,206.551727 
z"/>
<path fill="#D0C43F" opacity="1.000000" stroke="none" 
	d="
M357.072693,298.569214 
	C358.589478,301.112000 358.187958,304.179565 357.278381,307.572876 
	C357.057404,304.926666 357.056793,301.967682 357.072693,298.569214 
z"/>
<path fill="#CFC340" opacity="1.000000" stroke="none" 
	d="
M356.045227,193.553802 
	C357.584412,195.755859 357.164703,198.500732 356.297424,201.565765 
	C356.066467,199.245148 356.047852,196.617355 356.045227,193.553802 
z"/>
<path fill="#CEC341" opacity="1.000000" stroke="none" 
	d="
M356.066559,312.560242 
	C357.558258,314.770599 357.179657,317.510651 356.284119,320.569366 
	C356.058746,318.246887 356.052704,315.621033 356.066559,312.560242 
z"/>
<path fill="#D2C43C" opacity="1.000000" stroke="none" 
	d="
M354.085144,333.580414 
	C355.401917,335.136780 355.211182,337.199707 354.286438,339.577301 
	C354.069031,337.904816 354.061493,335.950134 354.085144,333.580414 
z"/>
<path fill="#D0C33F" opacity="1.000000" stroke="none" 
	d="
M354.064911,174.579987 
	C355.423553,176.121796 355.198517,178.186249 354.307068,180.566162 
	C354.081299,178.898270 354.060455,176.946732 354.064911,174.579987 
z"/>
<path fill="#CEC340" opacity="1.000000" stroke="none" 
	d="
M355.060303,324.529083 
	C356.324890,325.788300 356.211945,327.559753 355.256104,329.649261 
	C355.039215,328.261139 355.038116,326.601288 355.060303,324.529083 
z"/>
<path fill="#CEC341" opacity="1.000000" stroke="none" 
	d="
M355.022400,184.481171 
	C356.341980,185.713837 356.196411,187.491318 355.298462,189.589661 
	C355.065704,188.206497 355.037994,186.551361 355.022400,184.481171 
z"/>
<path fill="#CFC440" opacity="1.000000" stroke="none" 
	d="
M353.015991,167.426102 
	C354.186554,168.256439 353.965668,169.778717 353.994568,171.622192 
	C352.831177,170.798187 353.007294,169.278488 353.015991,167.426102 
z"/>
</svg>